<svg xmlns="http://www.w3.org/2000/svg" width="15" height="15" viewBox="0 0 15 15">
  <g id="Group_236" data-name="Group 236" transform="translate(-1367 -5266.971)">
    <path id="Path_4040" data-name="Path 4040" d="M14.648,10.162a.961.961,0,0,1,1.119,0l3.912,3.06a.524.524,0,0,1,.025.851l-3.855,3.015a.957.957,0,0,1-1.119,0,.526.526,0,0,1,0-.873l3.276-2.593-3.358-2.593A.521.521,0,0,1,14.648,10.162Z" transform="translate(1357.878 5260.842)" fill="#034d8f"/>
    <path id="Path_4041" data-name="Path 4041" d="M3.375,10.875a7.5,7.5,0,1,0,7.5-7.5A7.5,7.5,0,0,0,3.375,10.875Zm1.154,0A6.344,6.344,0,0,1,15.361,6.389a6.344,6.344,0,1,1-8.971,8.971A6.292,6.292,0,0,1,4.529,10.875Z" transform="translate(1363.625 5263.596)" fill="#034d8f"/>
  </g>
</svg>
