<svg xmlns="http://www.w3.org/2000/svg" width="15" height="15" viewBox="0 0 15 15">
  <g id="Icon_ionic-ios-arrow-dropright" data-name="Icon ionic-ios-arrow-dropright" transform="translate(-3.375 -3.375)">
    <path id="Path_4054" data-name="Path 4054" d="M14.637,10.171a.847.847,0,0,1,1.066,0l3.727,3.213a.584.584,0,0,1,.023.893l-3.672,3.166a.844.844,0,0,1-1.066,0,.585.585,0,0,1,0-.917l3.121-2.723-3.2-2.723A.58.58,0,0,1,14.637,10.171Z" transform="translate(-5.602 -2.937)"/>
    <path id="Path_4055" data-name="Path 4055" d="M3.375,10.875a7.5,7.5,0,1,0,7.5-7.5A7.5,7.5,0,0,0,3.375,10.875Zm1.154,0A6.344,6.344,0,0,1,15.361,6.389a6.344,6.344,0,1,1-8.971,8.971A6.292,6.292,0,0,1,4.529,10.875Z"/>
  </g>
</svg>
