<svg xmlns="http://www.w3.org/2000/svg" width="22.138" height="22.137" viewBox="0 0 22.138 22.137">
  <g id="Icon_ionic-ios-arrow-dropright" data-name="Icon ionic-ios-arrow-dropright" transform="translate(-3.375 -3.375)">
    <path id="Path_57" data-name="Path 57" d="M14.717,10.282a1.031,1.031,0,0,1,1.453,0l5.077,5.093a1.026,1.026,0,0,1,.032,1.416l-5,5.018a1.025,1.025,0,1,1-1.453-1.447l4.252-4.316-4.358-4.316A1.015,1.015,0,0,1,14.717,10.282Z" transform="translate(-2.684 -1.607)" fill="#fff"/>
    <path id="Path_58" data-name="Path 58" d="M3.375,14.444A11.069,11.069,0,1,0,14.444,3.375,11.067,11.067,0,0,0,3.375,14.444Zm1.7,0a9.362,9.362,0,0,1,15.986-6.62,9.362,9.362,0,1,1-13.24,13.24A9.285,9.285,0,0,1,5.078,14.444Z" fill="#fff"/>
  </g>
</svg>
