<svg xmlns="http://www.w3.org/2000/svg" width="59.355" height="47.484" viewBox="0 0 59.355 47.484">
  <path id="Icon_awesome-car-alt" data-name="Icon awesome-car-alt" d="M54.243,22.842l-1.39-3.475-2.464-6.162A13.782,13.782,0,0,0,37.53,4.5h-15.7A13.784,13.784,0,0,0,8.966,13.205L6.5,19.367l-1.39,3.475A7.9,7.9,0,0,0,0,30.221v5.936a7.85,7.85,0,0,0,1.979,5.185v6.686a3.958,3.958,0,0,0,3.957,3.957H9.893a3.958,3.958,0,0,0,3.957-3.957V44.07H45.506v3.957a3.958,3.958,0,0,0,3.957,3.957H53.42a3.958,3.958,0,0,0,3.957-3.957V41.341a7.845,7.845,0,0,0,1.979-5.185V30.221A7.9,7.9,0,0,0,54.243,22.842Zm-37.929-6.7a5.936,5.936,0,0,1,5.511-3.731h15.7a5.936,5.936,0,0,1,5.511,3.731l2.464,6.162H13.85l2.464-6.162ZM9.893,36.132a3.733,3.733,0,0,1-3.957-3.945,3.733,3.733,0,0,1,3.957-3.945c2.374,0,5.936,3.55,5.936,5.917S12.267,36.132,9.893,36.132Zm39.57,0c-2.374,0-5.936.394-5.936-1.972s3.561-5.917,5.936-5.917a3.733,3.733,0,0,1,3.957,3.945,3.733,3.733,0,0,1-3.957,3.945Z" transform="translate(0 -4.5)" fill="#034d8f"/>
</svg>
