<svg xmlns="http://www.w3.org/2000/svg" width="24.901" height="23" viewBox="0 0 24.901 23">
  <g id="Icon_ionic-ios-cart" data-name="Icon ionic-ios-cart" transform="translate(-3.382 -23.493)">
    <path id="Path_33" data-name="Path 33" d="M12.938,29.813a1.688,1.688,0,1,1-1.687-1.688,1.688,1.688,0,0,1,1.688,1.688Z" transform="translate(-1.037 14.993)" fill="#fff"/>
    <path id="Path_34" data-name="Path 34" d="M28.723,29.813a1.687,1.687,0,1,1-1.687-1.688,1.687,1.687,0,0,1,1.687,1.688Z" transform="translate(-5.488 14.993)" fill="#fff"/>
    <path id="Path_35" data-name="Path 35" d="M28.274,8.44a.35.35,0,0,0-.311-.243L8.46,6.377a.6.6,0,0,1-.449-.272A5.868,5.868,0,0,0,7.28,5.03c-.461-.543-1.329-.526-2.922-.537a.862.862,0,0,0-.976.815.845.845,0,0,0,.934.815,8.237,8.237,0,0,1,1.557.11c.281.081.509.526.593.913a.021.021,0,0,0,.006.017c.012.069.12.589.12.6l2.4,12.228a4.411,4.411,0,0,0,.868,2.063,2.421,2.421,0,0,0,1.97.936H25.993a.839.839,0,0,0,.862-.774.819.819,0,0,0-.838-.844h-14.2a.713.713,0,0,1-.5-.162,2.558,2.558,0,0,1-.689-1.5l-.257-1.37a.032.032,0,0,1,.024-.035l16.629-2.716a.343.343,0,0,0,.293-.3l.958-6.692A.318.318,0,0,0,28.274,8.44Z" transform="translate(0 19)" fill="#fff"/>
  </g>
</svg>
