<svg xmlns="http://www.w3.org/2000/svg" width="55.732" height="55.732" viewBox="0 0 55.732 55.732">
  <g id="Group_857" data-name="Group 857" transform="translate(-1592 -1206)">
    <path id="パス_4062" data-name="パス 4062" d="M27.866,5.518A22.348,22.348,0,1,0,50.214,27.866,22.373,22.373,0,0,0,27.866,5.518m0-5.518A27.866,27.866,0,1,1,0,27.866,27.866,27.866,0,0,1,27.866,0Z" transform="translate(1592 1206)" fill="#034d8f"/>
    <g id="Group_856" data-name="Group 856" transform="translate(1592.552 1222.297)">
      <path id="パス_4060" data-name="パス 4060" d="M10668.994,6099.018H10647V6093.5h21.994Z" transform="translate(-10614.491 -6085.661)" fill="#034d8f"/>
      <path id="パス_4061" data-name="パス 4061" d="M10859.018,6119.739h-5.518V6098.5h5.518Z" transform="translate(-10828.985 -6082.237)" fill="#034d8f"/>
      <path id="楕円形_19" data-name="楕円形 19" d="M5.6-5A10.6,10.6,0,1,1-5,5.6,10.61,10.61,0,0,1,5.6-5Zm0,15.679A5.08,5.08,0,1,0,.518,5.6,5.086,5.086,0,0,0,5.6,10.679Z" transform="translate(21.675 5)" fill="#034d8f"/>
      <path id="パス_4060-2" data-name="パス 4060" d="M10669.2,6099.018H10647V6093.5h22.2Z" transform="translate(-10647 -6085.661)" fill="#034d8f"/>
    </g>
  </g>
</svg>
