<svg xmlns="http://www.w3.org/2000/svg" width="26" height="17.551" viewBox="0 0 26 17.551">
  <path id="Icon_zocial-email" data-name="Icon zocial-email" d="M.072,20.064V5.622q0-.025.075-.476l8.5,7.271L.172,20.566a2.125,2.125,0,0,1-.1-.5ZM1.2,4.143a1.08,1.08,0,0,1,.426-.075H24.518a1.42,1.42,0,0,1,.451.075l-8.525,7.3-1.128.9-2.231,1.83-2.231-1.83-1.128-.9Zm.025,17.4,8.55-8.2,3.31,2.683,3.31-2.683,8.55,8.2a1.2,1.2,0,0,1-.426.075H1.626a1.136,1.136,0,0,1-.4-.075Zm16.3-9.126L26,5.146a1.5,1.5,0,0,1,.075.476V20.064a1.922,1.922,0,0,1-.075.5Z" transform="translate(-0.072 -4.068)" fill="#006dbf"/>
</svg>
