<svg xmlns="http://www.w3.org/2000/svg" width="79.141" height="47.484" viewBox="0 0 79.141 47.484">
  <path id="Icon_awesome-money-bill" data-name="Icon awesome-money-bill" d="M75.184,4.5H3.957A3.958,3.958,0,0,0,0,8.457v39.57a3.958,3.958,0,0,0,3.957,3.957H75.184a3.958,3.958,0,0,0,3.957-3.957V8.457A3.958,3.958,0,0,0,75.184,4.5ZM5.936,46.049V38.135a7.913,7.913,0,0,1,7.914,7.914Zm0-27.7V10.436H13.85A7.913,7.913,0,0,1,5.936,18.35ZM39.57,40.113c-5.464,0-9.893-5.316-9.893-11.871s4.429-11.871,9.893-11.871,9.893,5.315,9.893,11.871S45.032,40.113,39.57,40.113Zm33.635,5.936H65.291a7.913,7.913,0,0,1,7.914-7.914Zm0-27.7a7.913,7.913,0,0,1-7.914-7.914h7.914Z" transform="translate(0 -4.5)" fill="#034d8f"/>
</svg>
