<svg xmlns="http://www.w3.org/2000/svg" width="26" height="26" viewBox="0 0 26 26">
  <path id="Icon_material-phone-in-talk" data-name="Icon material-phone-in-talk" d="M29.056,22.556a16.409,16.409,0,0,1-5.157-.823,1.474,1.474,0,0,0-1.473.347l-3.178,3.178a21.732,21.732,0,0,1-9.519-9.519l3.178-3.192a1.387,1.387,0,0,0,.361-1.444,16.409,16.409,0,0,1-.823-5.157A1.449,1.449,0,0,0,11,4.5H5.944A1.449,1.449,0,0,0,4.5,5.944,24.553,24.553,0,0,0,29.056,30.5,1.449,1.449,0,0,0,30.5,29.056V24A1.449,1.449,0,0,0,29.056,22.556ZM27.611,17.5H30.5a13,13,0,0,0-13-13V7.389A10.1,10.1,0,0,1,27.611,17.5Zm-5.778,0h2.889A7.225,7.225,0,0,0,17.5,10.278v2.889A4.328,4.328,0,0,1,21.833,17.5Z" transform="translate(-4.5 -4.5)"/>
</svg>
