<svg xmlns="http://www.w3.org/2000/svg" width="33.195" height="33.195" viewBox="0 0 33.195 33.195">
  <path id="Icon_material-phone-in-talk" data-name="Icon material-phone-in-talk" d="M35.851,27.552A20.951,20.951,0,0,1,29.267,26.5a1.882,1.882,0,0,0-1.881.443L23.329,31A27.746,27.746,0,0,1,11.176,18.848l4.057-4.076a1.77,1.77,0,0,0,.461-1.844,20.951,20.951,0,0,1-1.051-6.584A1.85,1.85,0,0,0,12.8,4.5H6.344A1.85,1.85,0,0,0,4.5,6.344,31.348,31.348,0,0,0,35.851,37.7,1.85,1.85,0,0,0,37.7,35.851V29.4A1.85,1.85,0,0,0,35.851,27.552ZM34.007,21.1H37.7A16.6,16.6,0,0,0,21.1,4.5V8.188A12.9,12.9,0,0,1,34.007,21.1Zm-7.377,0h3.688A9.224,9.224,0,0,0,21.1,11.877v3.688A5.525,5.525,0,0,1,26.63,21.1Z" transform="translate(-4.5 -4.5)" fill="#8eac65"/>
</svg>
