<svg xmlns="http://www.w3.org/2000/svg" width="42" height="34.112" viewBox="0 0 42 34.112">
  <path id="Icon_awesome-twitter" data-name="Icon awesome-twitter" d="M37.683,11.882c.027.373.027.746.027,1.119,0,11.379-8.661,24.491-24.491,24.491A24.325,24.325,0,0,1,0,33.628a17.807,17.807,0,0,0,2.079.107,17.239,17.239,0,0,0,10.687-3.678,8.623,8.623,0,0,1-8.048-5.97,10.856,10.856,0,0,0,1.626.133,9.1,9.1,0,0,0,2.265-.293,8.609,8.609,0,0,1-6.9-8.448v-.107A8.669,8.669,0,0,0,5.6,16.466,8.621,8.621,0,0,1,2.931,4.953,24.468,24.468,0,0,0,20.68,13.961a9.717,9.717,0,0,1-.213-1.972,8.616,8.616,0,0,1,14.9-5.89A16.947,16.947,0,0,0,40.827,4.02a8.585,8.585,0,0,1-3.784,4.744A17.256,17.256,0,0,0,42,7.432a18.5,18.5,0,0,1-4.317,4.45Z" transform="translate(0 -3.381)" fill="#034d8f"/>
</svg>
