<svg xmlns="http://www.w3.org/2000/svg" width="18.017" height="14.634" viewBox="0 0 18.017 14.634">
  <path id="Icon_awesome-twitter" data-name="Icon awesome-twitter" d="M16.166,7.028c.011.16.011.32.011.48A10.434,10.434,0,0,1,5.671,18.014,10.435,10.435,0,0,1,0,16.357a7.639,7.639,0,0,0,.892.046,7.4,7.4,0,0,0,4.584-1.578,3.7,3.7,0,0,1-3.453-2.561,4.657,4.657,0,0,0,.7.057,3.905,3.905,0,0,0,.972-.126A3.693,3.693,0,0,1,.732,8.571V8.525A3.719,3.719,0,0,0,2.4,8.994,3.7,3.7,0,0,1,1.258,4.055,10.5,10.5,0,0,0,8.872,7.919a4.169,4.169,0,0,1-.091-.846,3.7,3.7,0,0,1,6.391-2.527,7.27,7.27,0,0,0,2.344-.892A3.683,3.683,0,0,1,15.891,5.69a7.4,7.4,0,0,0,2.126-.572,7.938,7.938,0,0,1-1.852,1.909Z" transform="translate(0 -3.381)" fill="#707070"/>
</svg>
