<svg xmlns="http://www.w3.org/2000/svg" width="23.776" height="16.718" viewBox="0 0 23.776 16.718">
  <path id="Icon_awesome-youtube" data-name="Icon awesome-youtube" d="M24.329,7.116A2.987,2.987,0,0,0,22.227,5c-1.854-.5-9.289-.5-9.289-.5S5.5,4.5,3.649,5a2.988,2.988,0,0,0-2.1,2.116,31.339,31.339,0,0,0-.5,5.76,31.339,31.339,0,0,0,.5,5.76,2.943,2.943,0,0,0,2.1,2.082c1.854.5,9.289.5,9.289.5s7.435,0,9.289-.5a2.943,2.943,0,0,0,2.1-2.082,31.339,31.339,0,0,0,.5-5.76,31.339,31.339,0,0,0-.5-5.76ZM10.506,16.411V9.34l6.214,3.535-6.214,3.535Z" transform="translate(-1.05 -4.5)" fill="#fff"/>
</svg>
